<svg viewBox="0 0 155.99 35.81" xmlns="http://www.w3.org/2000/svg"><g transform="translate(-1.1 -2.25)"><path d="m12.46 37.72c-16.46 2.53-10.19-9.91-10.19-9.91a43.15 43.15 0 0 1 4.73-7.07 12.81 12.81 0 0 1 -.93-4.74 13.08 13.08 0 0 1 21.1-10.39 55.75 55.75 0 0 1 9.08-3.37c-18.64 8.21-26.25 17.48-29.4 21.63-10.06 15.24 4.81 13.93 5.61 13.85z" fill="#5830e0"/><path d="m28.58 30s-6.88.85-12.58-1.35l-.75-.21c1.15-3.22 5.31-13.31 14.96-19.44a13.08 13.08 0 0 1 -4.61 18.34 7.08 7.08 0 0 0 2.98 2.66z" fill="#081828"/><g fill="#5830e0"><path d="m12.28 35.37s-8.52-5.86 12.25-24.49c0 0-24.28 19.59-12.25 24.49z"/><path d="m56.48 13.06-2.08 1.94a6.44 6.44 0 0 0 -4.77-2.24 5.23 5.23 0 0 0 -5.3 5.3 5.58 5.58 0 0 0 .67 2.81 4.86 4.86 0 0 0 1.92 1.9 5.58 5.58 0 0 0 2.76.69 5.68 5.68 0 0 0 2.32-.46 8.49 8.49 0 0 0 2.35-1.76l2 2.1a11.05 11.05 0 0 1 -3.27 2.34 8.92 8.92 0 0 1 -3.51.65 8.09 8.09 0 0 1 -6-2.31 8 8 0 0 1 -2.32-5.92 8.1 8.1 0 0 1 1.06-4.15 7.85 7.85 0 0 1 3-2.92 8.53 8.53 0 0 1 4.24-1.1 9 9 0 0 1 6.81 3.14z"/><path d="m58.44 9.92h2.9v16h-2.9z"/><path d="m72.5 14.38h2.9v11.55h-2.9v-1.22a5.68 5.68 0 0 1 -1.7 1.16 4.76 4.76 0 0 1 -1.85.36 5.14 5.14 0 0 1 -3.87-1.74 6.05 6.05 0 0 1 -1.63-4.32 6.21 6.21 0 0 1 1.55-4.38 5 5 0 0 1 3.84-1.71 4.88 4.88 0 0 1 2 .39 5.31 5.31 0 0 1 1.69 1.18zm-3 2.38a2.93 2.93 0 0 0 -2.23 1 3.42 3.42 0 0 0 -.89 2.44 3.46 3.46 0 0 0 .9 2.46 2.93 2.93 0 0 0 2.23 1 3 3 0 0 0 2.26-1 3.47 3.47 0 0 0 .9-2.49 3.37 3.37 0 0 0 -.9-2.44 3 3 0 0 0 -2.32-.97z"/><path d="m85.4 16-1.8 1.79a3 3 0 0 0 -2-1.08 1.25 1.25 0 0 0 -.76.21.62.62 0 0 0 -.28.51.63.63 0 0 0 .18.43 3.24 3.24 0 0 0 .87.54l1.06.53a6.25 6.25 0 0 1 2.33 1.68 3.52 3.52 0 0 1 -.5 4.59 4.33 4.33 0 0 1 -3 1 4.82 4.82 0 0 1 -4-2l1.78-1.94a4.13 4.13 0 0 0 1.19 1 2.64 2.64 0 0 0 1.22.37 1.45 1.45 0 0 0 .92-.28.8.8 0 0 0 .35-.64q0-.67-1.26-1.31l-1-.49q-2.8-1.41-2.8-3.54a3.07 3.07 0 0 1 1.06-2.34 3.83 3.83 0 0 1 2.7-1 4.69 4.69 0 0 1 3.74 1.97z"/><path d="m95 16-1.79 1.79a3 3 0 0 0 -2-1.08 1.25 1.25 0 0 0 -.76.21.62.62 0 0 0 -.28.51.63.63 0 0 0 .18.43 3.24 3.24 0 0 0 .87.54l1.06.53a6.25 6.25 0 0 1 2.3 1.69 3.52 3.52 0 0 1 -.58 4.58 4.33 4.33 0 0 1 -3 1 4.82 4.82 0 0 1 -4-2l1.78-1.94a4.13 4.13 0 0 0 1.19 1 2.64 2.64 0 0 0 1.22.37 1.45 1.45 0 0 0 .92-.28.8.8 0 0 0 .35-.64q0-.67-1.26-1.31l-1-.49q-2.8-1.41-2.8-3.54a3.07 3.07 0 0 1 1.06-2.34 3.83 3.83 0 0 1 2.7-1 4.69 4.69 0 0 1 3.84 1.97z"/><path d="m98.59 9.62a1.77 1.77 0 0 1 1.31.55 1.83 1.83 0 0 1 .54 1.34 1.81 1.81 0 0 1 -.54 1.32 1.75 1.75 0 0 1 -1.29.55 1.77 1.77 0 0 1 -1.32-.56 1.86 1.86 0 0 1 -.54-1.35 1.84 1.84 0 0 1 1.84-1.85zm-1.45 4.76h2.86v11.55h-2.9z"/></g><path d="m119.76 12.86-2.09 2.07a6.19 6.19 0 0 0 -4.63-2.1 5.3 5.3 0 0 0 -3.86 1.53 5 5 0 0 0 -1.56 3.72 5.14 5.14 0 0 0 1.62 3.83 5.5 5.5 0 0 0 4 1.57 4.89 4.89 0 0 0 2.6-.65 4.56 4.56 0 0 0 1.71-2h-4.55v-2.83h7.86v.66a7.65 7.65 0 0 1 -1.06 3.89 7.41 7.41 0 0 1 -2.75 2.8 7.84 7.84 0 0 1 -4 1 8.79 8.79 0 0 1 -4.34-1.06 7.73 7.73 0 0 1 -3-3 8.4 8.4 0 0 1 -1.07-4.29 7.83 7.83 0 0 1 2-5.39 8.08 8.08 0 0 1 6.36-2.69 9.63 9.63 0 0 1 3.81.75 8.74 8.74 0 0 1 2.95 2.19z" fill="#081828"/><path d="m122.61 14.38h2.48v1.45a3.1 3.1 0 0 1 1.07-1.31 2.59 2.59 0 0 1 1.46-.45 2.71 2.71 0 0 1 1.18.3l-.9 2.5a2 2 0 0 0 -.84-.25 1.33 1.33 0 0 0 -1.13.83 7.58 7.58 0 0 0 -.46 3.25v5.23h-2.88z" fill="#081828"/><path d="m131.37 9.62a1.77 1.77 0 0 1 1.31.55 1.83 1.83 0 0 1 .54 1.34 1.81 1.81 0 0 1 -.54 1.32 1.75 1.75 0 0 1 -1.29.55 1.77 1.77 0 0 1 -1.32-.56 1.86 1.86 0 0 1 -.54-1.35 1.84 1.84 0 0 1 1.84-1.85zm-1.45 4.76h2.9v11.55h-2.9z" fill="#081828"/><path d="m144 9.92h2.9v16h-2.9v-1.21a5.69 5.69 0 0 1 -1.7 1.16 4.76 4.76 0 0 1 -1.85.36 5.14 5.14 0 0 1 -3.87-1.74 6.05 6.05 0 0 1 -1.63-4.32 6.21 6.21 0 0 1 1.58-4.38 5 5 0 0 1 3.84-1.71 4.88 4.88 0 0 1 2 .39 5.31 5.31 0 0 1 1.63 1.18zm-3 6.84a2.93 2.93 0 0 0 -2.23 1 3.42 3.42 0 0 0 -.89 2.44 3.46 3.46 0 0 0 .9 2.46 2.93 2.93 0 0 0 2.23 1 3 3 0 0 0 2.26-1 3.47 3.47 0 0 0 .9-2.49 3.37 3.37 0 0 0 -.9-2.44 3 3 0 0 0 -2.34-.97z" fill="#081828"/><path d="m156.88 16-1.79 1.79a3 3 0 0 0 -2-1.08 1.24 1.24 0 0 0 -.76.21.62.62 0 0 0 -.28.51.63.63 0 0 0 .17.43 3.26 3.26 0 0 0 .87.54l1.06.53a6.26 6.26 0 0 1 2.3 1.69 3.52 3.52 0 0 1 -.5 4.59 4.33 4.33 0 0 1 -3 1 4.82 4.82 0 0 1 -4-2l1.78-1.94a4.12 4.12 0 0 0 1.2 1 2.64 2.64 0 0 0 1.22.37 1.44 1.44 0 0 0 .92-.28.8.8 0 0 0 .35-.64q0-.67-1.26-1.31l-1-.49q-2.8-1.41-2.8-3.54a3.06 3.06 0 0 1 1.06-2.34 3.84 3.84 0 0 1 2.7-1 4.69 4.69 0 0 1 3.8 1.91z" fill="#081828"/></g></svg>