<svg enable-background="new 0 0 24 24" viewBox="0 0 24 24" xmlns="http://www.w3.org/2000/svg"><path d="m17.5 7c3 0 5.5 2.5 5.5 5.5 0 3-2.5 5.5-5.5 5.5-1.7 0-3.2-.8-4.2-2h-2.5c-1 1.2-2.5 2-4.2 2-3 0-5.5-2.5-5.5-5.5s2.4-5.5 5.4-5.5zm-11 2c-1.9 0-3.5 1.6-3.5 3.5s1.6 3.5 3.5 3.5c1.4 0 2.6-.8 3.2-2h4.7c.6 1.2 1.8 2 3.2 2 1.9 0 3.5-1.6 3.5-3.5s-1.7-3.5-3.6-3.5zm-.7 1.3h1.5v1.5h1.5v1.5h-1.5v1.5h-1.5v-1.5h-1.5v-1.5h1.5zm11 2.2c.6 0 1 .4 1 1s-.4 1-1 1-1-.4-1-1 .4-1 1-1m2-2c.6 0 1 .4 1 1s-.4 1-1 1-1-.4-1-1 .4-1 1-1z" fill="#5830e0"/></svg>