<svg enable-background="new 0 0 24 24" viewBox="0 0 24 24" xmlns="http://www.w3.org/2000/svg"><path d="m21 9v-2c0-1.7-1.4-3-3-3h-4c-.8 0-1.5.3-2 .8-.5-.5-1.2-.8-2-.8h-4c-1.7 0-3 1.3-3 3v2c-1.6 0-3 1.4-3 3v5c0 1.6 1.4 3 3 3v2h2v-2h14v2h2v-2c1.6 0 3-1.4 3-3v-5c0-1.6-1.4-3-3-3m-7-3h4c.5 0 1 .4 1 1v2.8c-.6.6-1 1.3-1 2.2v2h-5v-7c0-.6.4-1 1-1m-9 1c0-.6.4-1 1-1h4c.6 0 1 .4 1 1v7h-5v-2c0-.9-.4-1.7-1-2.2zm17 10c0 .5-.5 1-1 1h-18c-.5 0-1-.5-1-1v-5c0-.6.5-1 1-1s1 .4 1 1v4h16v-4c0-.6.5-1 1-1s1 .4 1 1z" fill="#5830e0"/></svg>